<?xml version="1.0" encoding="utf-8" standalone="no"?>
<!DOCTYPE svg PUBLIC "-//W3C//DTD SVG 1.1//EN"
  "http://www.w3.org/Graphics/SVG/1.1/DTD/svg11.dtd">
<!-- Created with matplotlib (https://matplotlib.org/) -->
<svg height="576pt" version="1.1" viewBox="0 0 648 576" width="648pt" xmlns="http://www.w3.org/2000/svg" xmlns:xlink="http://www.w3.org/1999/xlink">
 <metadata>
  <rdf:RDF xmlns:cc="http://creativecommons.org/ns#" xmlns:dc="http://purl.org/dc/elements/1.1/" xmlns:rdf="http://www.w3.org/1999/02/22-rdf-syntax-ns#">
   <cc:Work>
    <dc:type rdf:resource="http://purl.org/dc/dcmitype/StillImage"/>
    <dc:date>2021-02-27T17:42:37.805091</dc:date>
    <dc:format>image/svg+xml</dc:format>
    <dc:creator>
     <cc:Agent>
      <dc:title>Matplotlib v3.3.4, https://matplotlib.org/</dc:title>
     </cc:Agent>
    </dc:creator>
   </cc:Work>
  </rdf:RDF>
 </metadata>
 <defs>
  <style type="text/css">*{stroke-linecap:butt;stroke-linejoin:round;}</style>
 </defs>
 <g id="figure_1">
  <g id="patch_1">
   <path d="M 0 576 
L 648 576 
L 648 0 
L 0 0 
z
" style="fill:#ffffff;"/>
  </g>
  <g id="patch_2">
   <path d="M 10.8 565.2 
L 637.2 565.2 
L 637.2 30.477187 
L 10.8 30.477187 
z
" style="fill:#ffffff;"/>
  </g>
  <g id="pane3d_1">
   <g id="patch_3">
    <path d="M 97.013854 433.354491 
L 273.59679 285.339173 
L 271.142118 71.874624 
L 86.108778 206.903527 
" style="fill:#f2f2f2;opacity:0.5;stroke:#f2f2f2;stroke-linejoin:miter;"/>
   </g>
  </g>
  <g id="pane3d_2">
   <g id="patch_4">
    <path d="M 273.59679 285.339173 
L 556.949397 367.698589 
L 567.061252 146.881498 
L 271.142118 71.874624 
" style="fill:#e6e6e6;opacity:0.5;stroke:#e6e6e6;stroke-linejoin:miter;"/>
   </g>
  </g>
  <g id="pane3d_3">
   <g id="patch_5">
    <path d="M 97.013854 433.354491 
L 397.381457 531.454549 
L 556.949397 367.698589 
L 273.59679 285.339173 
" style="fill:#ececec;opacity:0.5;stroke:#ececec;stroke-linejoin:miter;"/>
   </g>
  </g>
  <g id="axis3d_1">
   <g id="line2d_1">
    <path d="M 97.013854 433.354491 
L 397.381457 531.454549 
" style="fill:none;stroke:#000000;stroke-linecap:square;stroke-width:0.8;"/>
   </g>
   <g id="text_1">
    <!-- $x_1$ -->
    <g transform="translate(218.671464 517.866268)rotate(-341.912962)scale(0.15 -0.15)">
     <defs>
      <path d="M 7.8125 2.875 
Q 9.578125 1.515625 12.796875 1.515625 
Q 15.921875 1.515625 18.3125 4.515625 
Q 20.703125 7.515625 21.578125 11.078125 
L 26.125 28.8125 
Q 27.203125 33.640625 27.203125 35.40625 
Q 27.203125 37.890625 25.8125 39.75 
Q 24.421875 41.609375 21.921875 41.609375 
Q 18.75 41.609375 15.96875 39.625 
Q 13.1875 37.640625 11.28125 34.59375 
Q 9.375 31.546875 8.59375 28.421875 
Q 8.40625 27.78125 7.8125 27.78125 
L 6.59375 27.78125 
Q 5.8125 27.78125 5.8125 28.71875 
L 5.8125 29 
Q 6.78125 32.71875 9.125 36.25 
Q 11.46875 39.796875 14.859375 41.984375 
Q 18.265625 44.1875 22.125 44.1875 
Q 25.78125 44.1875 28.734375 42.234375 
Q 31.6875 40.28125 32.90625 36.921875 
Q 34.625 39.984375 37.28125 42.078125 
Q 39.9375 44.1875 43.109375 44.1875 
Q 45.265625 44.1875 47.5 43.421875 
Q 49.75 42.671875 51.171875 41.109375 
Q 52.59375 39.546875 52.59375 37.203125 
Q 52.59375 34.671875 50.953125 32.828125 
Q 49.3125 31 46.78125 31 
Q 45.171875 31 44.09375 32.03125 
Q 43.015625 33.0625 43.015625 34.625 
Q 43.015625 36.71875 44.453125 38.296875 
Q 45.90625 39.890625 47.90625 40.1875 
Q 46.09375 41.609375 42.921875 41.609375 
Q 39.703125 41.609375 37.328125 38.625 
Q 34.96875 35.640625 33.984375 31.984375 
L 29.59375 14.3125 
Q 28.515625 10.296875 28.515625 7.71875 
Q 28.515625 5.171875 29.953125 3.34375 
Q 31.390625 1.515625 33.796875 1.515625 
Q 38.484375 1.515625 42.15625 5.640625 
Q 45.84375 9.765625 47.015625 14.703125 
Q 47.21875 15.28125 47.796875 15.28125 
L 49.03125 15.28125 
Q 49.421875 15.28125 49.65625 15.015625 
Q 49.90625 14.75 49.90625 14.40625 
Q 49.90625 14.3125 49.8125 14.109375 
Q 48.390625 8.15625 43.84375 3.515625 
Q 39.3125 -1.125 33.59375 -1.125 
Q 29.9375 -1.125 26.984375 0.84375 
Q 24.03125 2.828125 22.796875 6.203125 
Q 21.234375 3.265625 18.46875 1.0625 
Q 15.71875 -1.125 12.59375 -1.125 
Q 10.453125 -1.125 8.171875 -0.359375 
Q 5.90625 0.390625 4.484375 1.953125 
Q 3.078125 3.515625 3.078125 5.90625 
Q 3.078125 8.25 4.703125 10.171875 
Q 6.34375 12.109375 8.796875 12.109375 
Q 10.453125 12.109375 11.578125 11.109375 
Q 12.703125 10.109375 12.703125 8.5 
Q 12.703125 6.390625 11.296875 4.828125 
Q 9.90625 3.265625 7.8125 2.875 
z
" id="Cmmi10-120"/>
      <path d="M 9.28125 0 
L 9.28125 3.515625 
Q 21.78125 3.515625 21.78125 6.6875 
L 21.78125 59.1875 
Q 16.609375 56.6875 8.6875 56.6875 
L 8.6875 60.203125 
Q 20.953125 60.203125 27.203125 66.609375 
L 28.609375 66.609375 
Q 28.953125 66.609375 29.265625 66.328125 
Q 29.59375 66.0625 29.59375 65.71875 
L 29.59375 6.6875 
Q 29.59375 3.515625 42.09375 3.515625 
L 42.09375 0 
z
" id="Cmr10-49"/>
     </defs>
     <use transform="translate(0 0.8125)" xlink:href="#Cmmi10-120"/>
     <use transform="translate(57.080078 -16.19375)scale(0.7)" xlink:href="#Cmr10-49"/>
    </g>
   </g>
   <g id="Line3DCollection_1">
    <path d="M 117.622663 440.085328 
L 293.118265 291.013295 
L 291.489322 77.032047 
" style="fill:none;stroke:#b0b0b0;stroke-width:0.8;"/>
    <path d="M 171.655887 457.732579 
L 344.244443 305.873656 
L 344.806094 90.546294 
" style="fill:none;stroke:#b0b0b0;stroke-width:0.8;"/>
    <path d="M 226.748248 475.725744 
L 396.289135 321.000993 
L 399.122449 104.313907 
" style="fill:none;stroke:#b0b0b0;stroke-width:0.8;"/>
    <path d="M 282.931194 494.075094 
L 449.277318 336.402566 
L 454.466762 118.342077 
" style="fill:none;stroke:#b0b0b0;stroke-width:0.8;"/>
    <path d="M 340.237433 512.791311 
L 503.234883 352.0859 
L 510.868493 132.638272 
" style="fill:none;stroke:#b0b0b0;stroke-width:0.8;"/>
   </g>
   <g id="xtick_1">
    <g id="line2d_2">
     <path clip-path="url(#p97f340b8c8)" d="M 331.225984 290.61261 
" style="fill:none;stroke:#b0b0b0;stroke-linecap:square;stroke-opacity:0.75;stroke-width:0.8;"/>
    </g>
    <g id="line2d_3">
     <path d="M 119.150923 438.787171 
L 114.559583 442.687214 
" style="fill:none;stroke:#000000;stroke-linecap:square;stroke-width:0.8;"/>
    </g>
    <g id="text_2">
     <!-- −0.4 -->
     <g transform="translate(94.325013 465.653008)scale(0.13 -0.13)">
      <defs>
       <path d="M 10.59375 35.5 
L 73.1875 35.5 
L 73.1875 27.203125 
L 10.59375 27.203125 
z
" id="DejaVuSans-8722"/>
       <path d="M 31.78125 66.40625 
Q 24.171875 66.40625 20.328125 58.90625 
Q 16.5 51.421875 16.5 36.375 
Q 16.5 21.390625 20.328125 13.890625 
Q 24.171875 6.390625 31.78125 6.390625 
Q 39.453125 6.390625 43.28125 13.890625 
Q 47.125 21.390625 47.125 36.375 
Q 47.125 51.421875 43.28125 58.90625 
Q 39.453125 66.40625 31.78125 66.40625 
z
M 31.78125 74.21875 
Q 44.046875 74.21875 50.515625 64.515625 
Q 56.984375 54.828125 56.984375 36.375 
Q 56.984375 17.96875 50.515625 8.265625 
Q 44.046875 -1.421875 31.78125 -1.421875 
Q 19.53125 -1.421875 13.0625 8.265625 
Q 6.59375 17.96875 6.59375 36.375 
Q 6.59375 54.828125 13.0625 64.515625 
Q 19.53125 74.21875 31.78125 74.21875 
z
" id="DejaVuSans-48"/>
       <path d="M 10.6875 12.40625 
L 21 12.40625 
L 21 0 
L 10.6875 0 
z
" id="DejaVuSans-46"/>
       <path d="M 37.796875 64.3125 
L 12.890625 25.390625 
L 37.796875 25.390625 
z
M 35.203125 72.90625 
L 47.609375 72.90625 
L 47.609375 25.390625 
L 58.015625 25.390625 
L 58.015625 17.1875 
L 47.609375 17.1875 
L 47.609375 0 
L 37.796875 0 
L 37.796875 17.1875 
L 4.890625 17.1875 
L 4.890625 26.703125 
z
" id="DejaVuSans-52"/>
      </defs>
      <use xlink:href="#DejaVuSans-8722"/>
      <use x="83.789062" xlink:href="#DejaVuSans-48"/>
      <use x="147.412109" xlink:href="#DejaVuSans-46"/>
      <use x="179.199219" xlink:href="#DejaVuSans-52"/>
     </g>
    </g>
   </g>
   <g id="xtick_2">
    <g id="line2d_4">
     <path clip-path="url(#p97f340b8c8)" d="M 331.225984 290.61261 
" style="fill:none;stroke:#b0b0b0;stroke-linecap:square;stroke-opacity:0.75;stroke-width:0.8;"/>
    </g>
    <g id="line2d_5">
     <path d="M 173.160017 456.40911 
L 168.641107 460.385253 
" style="fill:none;stroke:#000000;stroke-linecap:square;stroke-width:0.8;"/>
    </g>
    <g id="text_3">
     <!-- −0.2 -->
     <g transform="translate(148.385961 483.485739)scale(0.13 -0.13)">
      <defs>
       <path d="M 19.1875 8.296875 
L 53.609375 8.296875 
L 53.609375 0 
L 7.328125 0 
L 7.328125 8.296875 
Q 12.9375 14.109375 22.625 23.890625 
Q 32.328125 33.6875 34.8125 36.53125 
Q 39.546875 41.84375 41.421875 45.53125 
Q 43.3125 49.21875 43.3125 52.78125 
Q 43.3125 58.59375 39.234375 62.25 
Q 35.15625 65.921875 28.609375 65.921875 
Q 23.96875 65.921875 18.8125 64.3125 
Q 13.671875 62.703125 7.8125 59.421875 
L 7.8125 69.390625 
Q 13.765625 71.78125 18.9375 73 
Q 24.125 74.21875 28.421875 74.21875 
Q 39.75 74.21875 46.484375 68.546875 
Q 53.21875 62.890625 53.21875 53.421875 
Q 53.21875 48.921875 51.53125 44.890625 
Q 49.859375 40.875 45.40625 35.40625 
Q 44.1875 33.984375 37.640625 27.21875 
Q 31.109375 20.453125 19.1875 8.296875 
z
" id="DejaVuSans-50"/>
      </defs>
      <use xlink:href="#DejaVuSans-8722"/>
      <use x="83.789062" xlink:href="#DejaVuSans-48"/>
      <use x="147.412109" xlink:href="#DejaVuSans-46"/>
      <use x="179.199219" xlink:href="#DejaVuSans-50"/>
     </g>
    </g>
   </g>
   <g id="xtick_3">
    <g id="line2d_6">
     <path clip-path="url(#p97f340b8c8)" d="M 331.225984 290.61261 
" style="fill:none;stroke:#b0b0b0;stroke-linecap:square;stroke-opacity:0.75;stroke-width:0.8;"/>
    </g>
    <g id="line2d_7">
     <path d="M 228.227004 474.376215 
L 223.784262 478.430708 
" style="fill:none;stroke:#000000;stroke-linecap:square;stroke-width:0.8;"/>
    </g>
    <g id="text_4">
     <!-- 0.0 -->
     <g transform="translate(208.955381 501.668678)scale(0.13 -0.13)">
      <use xlink:href="#DejaVuSans-48"/>
      <use x="63.623047" xlink:href="#DejaVuSans-46"/>
      <use x="95.410156" xlink:href="#DejaVuSans-48"/>
     </g>
    </g>
   </g>
   <g id="xtick_4">
    <g id="line2d_8">
     <path clip-path="url(#p97f340b8c8)" d="M 331.225984 290.61261 
" style="fill:none;stroke:#b0b0b0;stroke-linecap:square;stroke-opacity:0.75;stroke-width:0.8;"/>
    </g>
    <g id="line2d_9">
     <path d="M 284.383274 492.698729 
L 280.020616 496.833909 
" style="fill:none;stroke:#000000;stroke-linecap:square;stroke-width:0.8;"/>
    </g>
    <g id="text_5">
     <!-- 0.2 -->
     <g transform="translate(265.171265 520.212243)scale(0.13 -0.13)">
      <use xlink:href="#DejaVuSans-48"/>
      <use x="63.623047" xlink:href="#DejaVuSans-46"/>
      <use x="95.410156" xlink:href="#DejaVuSans-50"/>
     </g>
    </g>
   </g>
   <g id="xtick_5">
    <g id="line2d_10">
     <path clip-path="url(#p97f340b8c8)" d="M 331.225984 290.61261 
" style="fill:none;stroke:#b0b0b0;stroke-linecap:square;stroke-opacity:0.75;stroke-width:0.8;"/>
    </g>
    <g id="line2d_11">
     <path d="M 341.661468 511.387301 
L 337.383004 515.605602 
" style="fill:none;stroke:#000000;stroke-linecap:square;stroke-width:0.8;"/>
    </g>
    <g id="text_6">
     <!-- 0.4 -->
     <g transform="translate(322.51326 539.127271)scale(0.13 -0.13)">
      <use xlink:href="#DejaVuSans-48"/>
      <use x="63.623047" xlink:href="#DejaVuSans-46"/>
      <use x="95.410156" xlink:href="#DejaVuSans-52"/>
     </g>
    </g>
   </g>
  </g>
  <g id="axis3d_2">
   <g id="line2d_12">
    <path d="M 556.949397 367.698589 
L 397.381457 531.454549 
" style="fill:none;stroke:#000000;stroke-linecap:square;stroke-width:0.8;"/>
   </g>
   <g id="text_7">
    <!-- $x_2$ -->
    <g transform="translate(505.474437 482.109744)rotate(-45.742112)scale(0.15 -0.15)">
     <defs>
      <path d="M 4.984375 0 
L 4.984375 2.6875 
Q 4.984375 2.9375 5.171875 3.21875 
L 20.703125 20.40625 
Q 24.21875 24.21875 26.40625 26.796875 
Q 28.609375 29.390625 30.75 32.765625 
Q 32.90625 36.140625 34.15625 39.625 
Q 35.40625 43.109375 35.40625 47.015625 
Q 35.40625 51.125 33.890625 54.859375 
Q 32.375 58.59375 29.375 60.84375 
Q 26.375 63.09375 22.125 63.09375 
Q 17.78125 63.09375 14.3125 60.46875 
Q 10.84375 57.859375 9.421875 53.71875 
Q 9.8125 53.8125 10.5 53.8125 
Q 12.75 53.8125 14.328125 52.296875 
Q 15.921875 50.78125 15.921875 48.390625 
Q 15.921875 46.09375 14.328125 44.5 
Q 12.75 42.921875 10.5 42.921875 
Q 8.15625 42.921875 6.5625 44.546875 
Q 4.984375 46.1875 4.984375 48.390625 
Q 4.984375 52.15625 6.390625 55.4375 
Q 7.8125 58.734375 10.46875 61.296875 
Q 13.140625 63.875 16.484375 65.234375 
Q 19.828125 66.609375 23.578125 66.609375 
Q 29.296875 66.609375 34.21875 64.1875 
Q 39.15625 61.765625 42.03125 57.34375 
Q 44.921875 52.9375 44.921875 47.015625 
Q 44.921875 42.671875 43.015625 38.765625 
Q 41.109375 34.859375 38.125 31.65625 
Q 35.15625 28.46875 30.515625 24.40625 
Q 25.875 20.359375 24.421875 19 
L 13.09375 8.109375 
L 22.703125 8.109375 
Q 29.78125 8.109375 34.546875 8.21875 
Q 39.3125 8.34375 39.59375 8.59375 
Q 40.765625 9.859375 42 17.828125 
L 44.921875 17.828125 
L 42.09375 0 
z
" id="Cmr10-50"/>
     </defs>
     <use transform="translate(0 0.8125)" xlink:href="#Cmmi10-120"/>
     <use transform="translate(57.080078 -16.19375)scale(0.7)" xlink:href="#Cmr10-50"/>
    </g>
   </g>
   <g id="Line3DCollection_2">
    <path d="M 103.060263 194.533106 
L 113.135456 419.841044 
L 412.008183 516.44393 
" style="fill:none;stroke:#b0b0b0;stroke-width:0.8;"/>
    <path d="M 129.244408 175.425109 
L 138.059744 398.949011 
L 434.598131 493.261086 
" style="fill:none;stroke:#b0b0b0;stroke-width:0.8;"/>
    <path d="M 154.799923 156.775858 
L 162.411465 378.536917 
L 456.641929 470.638727 
" style="fill:none;stroke:#b0b0b0;stroke-width:0.8;"/>
    <path d="M 179.749177 138.569029 
L 186.210123 358.58841 
L 478.159146 448.556769 
" style="fill:none;stroke:#b0b0b0;stroke-width:0.8;"/>
    <path d="M 204.11349 120.789063 
L 209.474348 339.087875 
L 499.168427 426.996078 
" style="fill:none;stroke:#b0b0b0;stroke-width:0.8;"/>
    <path d="M 227.913197 103.421121 
L 232.221943 320.020389 
L 519.687549 405.938411 
" style="fill:none;stroke:#b0b0b0;stroke-width:0.8;"/>
    <path d="M 251.167697 86.451046 
L 254.469928 301.371687 
L 539.733467 385.366367 
" style="fill:none;stroke:#b0b0b0;stroke-width:0.8;"/>
   </g>
   <g id="xtick_6">
    <g id="line2d_13">
     <path clip-path="url(#p97f340b8c8)" d="M 331.225984 290.61261 
" style="fill:none;stroke:#b0b0b0;stroke-linecap:square;stroke-opacity:0.75;stroke-width:0.8;"/>
    </g>
    <g id="line2d_14">
     <path d="M 409.489821 515.629934 
L 417.051408 518.074022 
" style="fill:none;stroke:#000000;stroke-linecap:square;stroke-width:0.8;"/>
    </g>
    <g id="text_8">
     <!-- −0.50 -->
     <g transform="translate(404.941587 539.714038)scale(0.13 -0.13)">
      <defs>
       <path d="M 10.796875 72.90625 
L 49.515625 72.90625 
L 49.515625 64.59375 
L 19.828125 64.59375 
L 19.828125 46.734375 
Q 21.96875 47.46875 24.109375 47.828125 
Q 26.265625 48.1875 28.421875 48.1875 
Q 40.625 48.1875 47.75 41.5 
Q 54.890625 34.8125 54.890625 23.390625 
Q 54.890625 11.625 47.5625 5.09375 
Q 40.234375 -1.421875 26.90625 -1.421875 
Q 22.3125 -1.421875 17.546875 -0.640625 
Q 12.796875 0.140625 7.71875 1.703125 
L 7.71875 11.625 
Q 12.109375 9.234375 16.796875 8.0625 
Q 21.484375 6.890625 26.703125 6.890625 
Q 35.15625 6.890625 40.078125 11.328125 
Q 45.015625 15.765625 45.015625 23.390625 
Q 45.015625 31 40.078125 35.4375 
Q 35.15625 39.890625 26.703125 39.890625 
Q 22.75 39.890625 18.8125 39.015625 
Q 14.890625 38.140625 10.796875 36.28125 
z
" id="DejaVuSans-53"/>
      </defs>
      <use xlink:href="#DejaVuSans-8722"/>
      <use x="83.789062" xlink:href="#DejaVuSans-48"/>
      <use x="147.412109" xlink:href="#DejaVuSans-46"/>
      <use x="179.199219" xlink:href="#DejaVuSans-53"/>
      <use x="242.822266" xlink:href="#DejaVuSans-48"/>
     </g>
    </g>
   </g>
   <g id="xtick_7">
    <g id="line2d_15">
     <path clip-path="url(#p97f340b8c8)" d="M 331.225984 290.61261 
" style="fill:none;stroke:#b0b0b0;stroke-linecap:square;stroke-opacity:0.75;stroke-width:0.8;"/>
    </g>
    <g id="line2d_16">
     <path d="M 432.100985 492.466885 
L 439.598791 494.851513 
" style="fill:none;stroke:#000000;stroke-linecap:square;stroke-width:0.8;"/>
    </g>
    <g id="text_9">
     <!-- −0.25 -->
     <g transform="translate(427.380852 516.360468)scale(0.13 -0.13)">
      <use xlink:href="#DejaVuSans-8722"/>
      <use x="83.789062" xlink:href="#DejaVuSans-48"/>
      <use x="147.412109" xlink:href="#DejaVuSans-46"/>
      <use x="179.199219" xlink:href="#DejaVuSans-50"/>
      <use x="242.822266" xlink:href="#DejaVuSans-53"/>
     </g>
    </g>
   </g>
   <g id="xtick_8">
    <g id="line2d_17">
     <path clip-path="url(#p97f340b8c8)" d="M 331.225984 290.61261 
" style="fill:none;stroke:#b0b0b0;stroke-linecap:square;stroke-opacity:0.75;stroke-width:0.8;"/>
    </g>
    <g id="line2d_18">
     <path d="M 454.165714 469.863607 
L 461.600596 472.190919 
" style="fill:none;stroke:#000000;stroke-linecap:square;stroke-width:0.8;"/>
    </g>
    <g id="text_10">
     <!-- 0.00 -->
     <g transform="translate(454.724249 493.571674)scale(0.13 -0.13)">
      <use xlink:href="#DejaVuSans-48"/>
      <use x="63.623047" xlink:href="#DejaVuSans-46"/>
      <use x="95.410156" xlink:href="#DejaVuSans-48"/>
      <use x="159.033203" xlink:href="#DejaVuSans-48"/>
     </g>
    </g>
   </g>
   <g id="xtick_9">
    <g id="line2d_19">
     <path clip-path="url(#p97f340b8c8)" d="M 331.225984 290.61261 
" style="fill:none;stroke:#b0b0b0;stroke-linecap:square;stroke-opacity:0.75;stroke-width:0.8;"/>
    </g>
    <g id="line2d_20">
     <path d="M 475.703581 447.800051 
L 483.076386 450.072089 
" style="fill:none;stroke:#000000;stroke-linecap:square;stroke-width:0.8;"/>
    </g>
    <g id="text_11">
     <!-- 0.25 -->
     <g transform="translate(476.097635 471.327414)scale(0.13 -0.13)">
      <use xlink:href="#DejaVuSans-48"/>
      <use x="63.623047" xlink:href="#DejaVuSans-46"/>
      <use x="95.410156" xlink:href="#DejaVuSans-50"/>
      <use x="159.033203" xlink:href="#DejaVuSans-53"/>
     </g>
    </g>
   </g>
   <g id="xtick_10">
    <g id="line2d_21">
     <path clip-path="url(#p97f340b8c8)" d="M 331.225984 290.61261 
" style="fill:none;stroke:#b0b0b0;stroke-linecap:square;stroke-opacity:0.75;stroke-width:0.8;"/>
    </g>
    <g id="line2d_22">
     <path d="M 496.733233 426.257114 
L 504.044804 428.475823 
" style="fill:none;stroke:#000000;stroke-linecap:square;stroke-width:0.8;"/>
    </g>
    <g id="text_12">
     <!-- 0.50 -->
     <g transform="translate(496.966338 449.608399)scale(0.13 -0.13)">
      <use xlink:href="#DejaVuSans-48"/>
      <use x="63.623047" xlink:href="#DejaVuSans-46"/>
      <use x="95.410156" xlink:href="#DejaVuSans-53"/>
      <use x="159.033203" xlink:href="#DejaVuSans-48"/>
     </g>
    </g>
   </g>
   <g id="xtick_11">
    <g id="line2d_23">
     <path clip-path="url(#p97f340b8c8)" d="M 331.225984 290.61261 
" style="fill:none;stroke:#b0b0b0;stroke-linecap:square;stroke-opacity:0.75;stroke-width:0.8;"/>
    </g>
    <g id="line2d_24">
     <path d="M 517.272449 405.216583 
L 524.523619 407.383821 
" style="fill:none;stroke:#000000;stroke-linecap:square;stroke-width:0.8;"/>
    </g>
    <g id="text_13">
     <!-- 0.75 -->
     <g transform="translate(517.348025 428.396245)scale(0.13 -0.13)">
      <defs>
       <path d="M 8.203125 72.90625 
L 55.078125 72.90625 
L 55.078125 68.703125 
L 28.609375 0 
L 18.3125 0 
L 43.21875 64.59375 
L 8.203125 64.59375 
z
" id="DejaVuSans-55"/>
      </defs>
      <use xlink:href="#DejaVuSans-48"/>
      <use x="63.623047" xlink:href="#DejaVuSans-46"/>
      <use x="95.410156" xlink:href="#DejaVuSans-55"/>
      <use x="159.033203" xlink:href="#DejaVuSans-53"/>
     </g>
    </g>
   </g>
   <g id="xtick_12">
    <g id="line2d_25">
     <path clip-path="url(#p97f340b8c8)" d="M 331.225984 290.61261 
" style="fill:none;stroke:#b0b0b0;stroke-linecap:square;stroke-opacity:0.75;stroke-width:0.8;"/>
    </g>
    <g id="line2d_26">
     <path d="M 537.338187 384.661087 
L 544.529782 386.778623 
" style="fill:none;stroke:#000000;stroke-linecap:square;stroke-width:0.8;"/>
    </g>
    <g id="text_14">
     <!-- 1.00 -->
     <g transform="translate(537.259547 407.673412)scale(0.13 -0.13)">
      <defs>
       <path d="M 12.40625 8.296875 
L 28.515625 8.296875 
L 28.515625 63.921875 
L 10.984375 60.40625 
L 10.984375 69.390625 
L 28.421875 72.90625 
L 38.28125 72.90625 
L 38.28125 8.296875 
L 54.390625 8.296875 
L 54.390625 0 
L 12.40625 0 
z
" id="DejaVuSans-49"/>
      </defs>
      <use xlink:href="#DejaVuSans-49"/>
      <use x="63.623047" xlink:href="#DejaVuSans-46"/>
      <use x="95.410156" xlink:href="#DejaVuSans-48"/>
      <use x="159.033203" xlink:href="#DejaVuSans-48"/>
     </g>
    </g>
   </g>
  </g>
  <g id="axis3d_3">
   <g id="line2d_27">
    <path d="M 556.949397 367.698589 
L 567.061252 146.881498 
" style="fill:none;stroke:#000000;stroke-linecap:square;stroke-width:0.8;"/>
   </g>
   <g id="text_15">
    <!-- $x_3$ -->
    <g transform="translate(606.200485 261.888024)rotate(-87.378092)scale(0.15 -0.15)">
     <defs>
      <path d="M 9.515625 7.71875 
Q 11.859375 4.296875 15.8125 2.640625 
Q 19.78125 0.984375 24.3125 0.984375 
Q 30.125 0.984375 32.5625 5.9375 
Q 35.015625 10.890625 35.015625 17.1875 
Q 35.015625 20.015625 34.5 22.84375 
Q 33.984375 25.6875 32.765625 28.125 
Q 31.546875 30.5625 29.421875 32.03125 
Q 27.296875 33.5 24.21875 33.5 
L 17.578125 33.5 
Q 16.703125 33.5 16.703125 34.421875 
L 16.703125 35.296875 
Q 16.703125 36.078125 17.578125 36.078125 
L 23.09375 36.53125 
Q 26.609375 36.53125 28.921875 39.15625 
Q 31.25 41.796875 32.328125 45.578125 
Q 33.40625 49.359375 33.40625 52.78125 
Q 33.40625 57.5625 31.15625 60.640625 
Q 28.90625 63.71875 24.3125 63.71875 
Q 20.515625 63.71875 17.046875 62.28125 
Q 13.578125 60.84375 11.53125 57.90625 
Q 11.71875 57.953125 11.859375 57.984375 
Q 12.015625 58.015625 12.203125 58.015625 
Q 14.453125 58.015625 15.96875 56.453125 
Q 17.484375 54.890625 17.484375 52.6875 
Q 17.484375 50.53125 15.96875 48.96875 
Q 14.453125 47.40625 12.203125 47.40625 
Q 10.015625 47.40625 8.453125 48.96875 
Q 6.890625 50.53125 6.890625 52.6875 
Q 6.890625 56.984375 9.46875 60.15625 
Q 12.0625 63.328125 16.140625 64.96875 
Q 20.21875 66.609375 24.3125 66.609375 
Q 27.34375 66.609375 30.703125 65.703125 
Q 34.078125 64.796875 36.8125 63.109375 
Q 39.546875 61.421875 41.28125 58.78125 
Q 43.015625 56.15625 43.015625 52.78125 
Q 43.015625 48.578125 41.140625 45.015625 
Q 39.265625 41.453125 35.984375 38.859375 
Q 32.71875 36.28125 28.8125 35.015625 
Q 33.15625 34.1875 37.0625 31.734375 
Q 40.96875 29.296875 43.328125 25.484375 
Q 45.703125 21.6875 45.703125 17.28125 
Q 45.703125 11.765625 42.671875 7.296875 
Q 39.65625 2.828125 34.71875 0.3125 
Q 29.78125 -2.203125 24.3125 -2.203125 
Q 19.625 -2.203125 14.90625 -0.40625 
Q 10.203125 1.375 7.203125 4.9375 
Q 4.203125 8.5 4.203125 13.484375 
Q 4.203125 15.96875 5.859375 17.625 
Q 7.515625 19.28125 10.015625 19.28125 
Q 11.625 19.28125 12.96875 18.53125 
Q 14.3125 17.78125 15.0625 16.40625 
Q 15.828125 15.046875 15.828125 13.484375 
Q 15.828125 11.03125 14.109375 9.375 
Q 12.40625 7.71875 10.015625 7.71875 
z
" id="Cmr10-51"/>
     </defs>
     <use transform="translate(0 0.8125)" xlink:href="#Cmmi10-120"/>
     <use transform="translate(57.080078 -16.19375)scale(0.7)" xlink:href="#Cmr10-51"/>
    </g>
   </g>
   <g id="Line3DCollection_3">
    <path d="M 557.530993 354.998012 
L 273.455325 273.037036 
L 96.38763 420.350557 
" style="fill:none;stroke:#b0b0b0;stroke-width:0.8;"/>
    <path d="M 558.73498 328.706003 
L 273.162582 247.579354 
L 95.090873 393.422545 
" style="fill:none;stroke:#b0b0b0;stroke-width:0.8;"/>
    <path d="M 559.951847 302.132741 
L 272.866857 221.862354 
L 93.779714 366.195494 
" style="fill:none;stroke:#b0b0b0;stroke-width:0.8;"/>
    <path d="M 561.181801 275.273687 
L 272.568104 195.882052 
L 92.453914 338.664393 
" style="fill:none;stroke:#b0b0b0;stroke-width:0.8;"/>
    <path d="M 562.425055 248.124207 
L 272.266277 169.634383 
L 91.113225 310.824122 
" style="fill:none;stroke:#b0b0b0;stroke-width:0.8;"/>
    <path d="M 563.681825 220.679565 
L 271.961328 143.115201 
L 89.757396 282.669443 
" style="fill:none;stroke:#b0b0b0;stroke-width:0.8;"/>
    <path d="M 564.952332 192.93492 
L 271.653207 116.320268 
L 88.386168 254.195 
" style="fill:none;stroke:#b0b0b0;stroke-width:0.8;"/>
    <path d="M 566.236805 164.885327 
L 271.341866 89.245263 
L 86.999277 225.395314 
" style="fill:none;stroke:#b0b0b0;stroke-width:0.8;"/>
   </g>
   <g id="xtick_13">
    <g id="line2d_28">
     <path clip-path="url(#p97f340b8c8)" d="M 331.225984 290.61261 
" style="fill:none;stroke:#b0b0b0;stroke-linecap:square;stroke-opacity:0.75;stroke-width:0.8;"/>
    </g>
    <g id="line2d_29">
     <path d="M 555.146528 354.310051 
L 562.305608 356.375575 
" style="fill:none;stroke:#000000;stroke-linecap:square;stroke-width:0.8;"/>
    </g>
    <g id="text_16">
     <!-- −1.25 -->
     <g transform="translate(555.933853 362.27937)scale(0.13 -0.13)">
      <use xlink:href="#DejaVuSans-8722"/>
      <use x="83.789062" xlink:href="#DejaVuSans-49"/>
      <use x="147.412109" xlink:href="#DejaVuSans-46"/>
      <use x="179.199219" xlink:href="#DejaVuSans-50"/>
      <use x="242.822266" xlink:href="#DejaVuSans-53"/>
     </g>
    </g>
   </g>
   <g id="xtick_14">
    <g id="line2d_30">
     <path clip-path="url(#p97f340b8c8)" d="M 331.225984 290.61261 
" style="fill:none;stroke:#b0b0b0;stroke-linecap:square;stroke-opacity:0.75;stroke-width:0.8;"/>
    </g>
    <g id="line2d_31">
     <path d="M 556.337354 328.024875 
L 563.53598 330.069892 
" style="fill:none;stroke:#000000;stroke-linecap:square;stroke-width:0.8;"/>
    </g>
    <g id="text_17">
     <!-- −1.00 -->
     <g transform="translate(557.233359 336.013167)scale(0.13 -0.13)">
      <use xlink:href="#DejaVuSans-8722"/>
      <use x="83.789062" xlink:href="#DejaVuSans-49"/>
      <use x="147.412109" xlink:href="#DejaVuSans-46"/>
      <use x="179.199219" xlink:href="#DejaVuSans-48"/>
      <use x="242.822266" xlink:href="#DejaVuSans-48"/>
     </g>
    </g>
   </g>
   <g id="xtick_15">
    <g id="line2d_32">
     <path clip-path="url(#p97f340b8c8)" d="M 331.225984 290.61261 
" style="fill:none;stroke:#b0b0b0;stroke-linecap:square;stroke-opacity:0.75;stroke-width:0.8;"/>
    </g>
    <g id="line2d_33">
     <path d="M 557.540914 301.458632 
L 564.779524 303.482583 
" style="fill:none;stroke:#000000;stroke-linecap:square;stroke-width:0.8;"/>
    </g>
    <g id="text_18">
     <!-- −0.75 -->
     <g transform="translate(558.546745 309.466413)scale(0.13 -0.13)">
      <use xlink:href="#DejaVuSans-8722"/>
      <use x="83.789062" xlink:href="#DejaVuSans-48"/>
      <use x="147.412109" xlink:href="#DejaVuSans-46"/>
      <use x="179.199219" xlink:href="#DejaVuSans-55"/>
      <use x="242.822266" xlink:href="#DejaVuSans-53"/>
     </g>
    </g>
   </g>
   <g id="xtick_16">
    <g id="line2d_34">
     <path clip-path="url(#p97f340b8c8)" d="M 331.225984 290.61261 
" style="fill:none;stroke:#b0b0b0;stroke-linecap:square;stroke-opacity:0.75;stroke-width:0.8;"/>
    </g>
    <g id="line2d_35">
     <path d="M 558.757413 274.606788 
L 566.036452 276.609101 
" style="fill:none;stroke:#000000;stroke-linecap:square;stroke-width:0.8;"/>
    </g>
    <g id="text_19">
     <!-- −0.50 -->
     <g transform="translate(559.874234 282.634586)scale(0.13 -0.13)">
      <use xlink:href="#DejaVuSans-8722"/>
      <use x="83.789062" xlink:href="#DejaVuSans-48"/>
      <use x="147.412109" xlink:href="#DejaVuSans-46"/>
      <use x="179.199219" xlink:href="#DejaVuSans-53"/>
      <use x="242.822266" xlink:href="#DejaVuSans-48"/>
     </g>
    </g>
   </g>
   <g id="xtick_17">
    <g id="line2d_36">
     <path clip-path="url(#p97f340b8c8)" d="M 331.225984 290.61261 
" style="fill:none;stroke:#b0b0b0;stroke-linecap:square;stroke-opacity:0.75;stroke-width:0.8;"/>
    </g>
    <g id="line2d_37">
     <path d="M 559.98706 247.464714 
L 567.306983 249.4448 
" style="fill:none;stroke:#000000;stroke-linecap:square;stroke-width:0.8;"/>
    </g>
    <g id="text_20">
     <!-- −0.25 -->
     <g transform="translate(561.216056 255.513072)scale(0.13 -0.13)">
      <use xlink:href="#DejaVuSans-8722"/>
      <use x="83.789062" xlink:href="#DejaVuSans-48"/>
      <use x="147.412109" xlink:href="#DejaVuSans-46"/>
      <use x="179.199219" xlink:href="#DejaVuSans-50"/>
      <use x="242.822266" xlink:href="#DejaVuSans-53"/>
     </g>
    </g>
   </g>
   <g id="xtick_18">
    <g id="line2d_38">
     <path clip-path="url(#p97f340b8c8)" d="M 331.225984 290.61261 
" style="fill:none;stroke:#b0b0b0;stroke-linecap:square;stroke-opacity:0.75;stroke-width:0.8;"/>
    </g>
    <g id="line2d_39">
     <path d="M 561.23007 220.027678 
L 568.591339 221.984935 
" style="fill:none;stroke:#000000;stroke-linecap:square;stroke-width:0.8;"/>
    </g>
    <g id="text_21">
     <!-- 0.00 -->
     <g transform="translate(568.01924 228.097154)scale(0.13 -0.13)">
      <use xlink:href="#DejaVuSans-48"/>
      <use x="63.623047" xlink:href="#DejaVuSans-46"/>
      <use x="95.410156" xlink:href="#DejaVuSans-48"/>
      <use x="159.033203" xlink:href="#DejaVuSans-48"/>
     </g>
    </g>
   </g>
   <g id="xtick_19">
    <g id="line2d_40">
     <path clip-path="url(#p97f340b8c8)" d="M 331.225984 290.61261 
" style="fill:none;stroke:#b0b0b0;stroke-linecap:square;stroke-opacity:0.75;stroke-width:0.8;"/>
    </g>
    <g id="line2d_41">
     <path d="M 562.486662 192.290845 
L 569.889745 194.224655 
" style="fill:none;stroke:#000000;stroke-linecap:square;stroke-width:0.8;"/>
    </g>
    <g id="text_22">
     <!-- 0.25 -->
     <g transform="translate(569.390431 200.38201)scale(0.13 -0.13)">
      <use xlink:href="#DejaVuSans-48"/>
      <use x="63.623047" xlink:href="#DejaVuSans-46"/>
      <use x="95.410156" xlink:href="#DejaVuSans-50"/>
      <use x="159.033203" xlink:href="#DejaVuSans-53"/>
     </g>
    </g>
   </g>
   <g id="xtick_20">
    <g id="line2d_42">
     <path clip-path="url(#p97f340b8c8)" d="M 331.225984 290.61261 
" style="fill:none;stroke:#b0b0b0;stroke-linecap:square;stroke-opacity:0.75;stroke-width:0.8;"/>
    </g>
    <g id="line2d_43">
     <path d="M 563.75706 164.249277 
L 571.202434 166.159003 
" style="fill:none;stroke:#000000;stroke-linecap:square;stroke-width:0.8;"/>
    </g>
    <g id="text_23">
     <!-- 0.50 -->
     <g transform="translate(570.776669 172.362717)scale(0.13 -0.13)">
      <use xlink:href="#DejaVuSans-48"/>
      <use x="63.623047" xlink:href="#DejaVuSans-46"/>
      <use x="95.410156" xlink:href="#DejaVuSans-53"/>
      <use x="159.033203" xlink:href="#DejaVuSans-48"/>
     </g>
    </g>
   </g>
  </g>
  <g id="axes_1">
   <g id="line2d_44">
    <path clip-path="url(#p97f340b8c8)" d="M 288.335079 268.494663 
L 287.024571 269.257315 
L 285.798634 269.672038 
L 284.642377 269.799856 
L 283.545731 269.673104 
L 282.515689 269.296079 
L 281.571127 268.66312 
L 280.890913 267.964631 
L 280.309898 267.071336 
L 279.867791 265.963298 
L 279.618629 264.629107 
L 279.599225 263.477918 
L 279.837808 261.741453 
L 280.259988 260.327248 
L 280.949225 258.82012 
L 281.942723 257.242151 
L 283.263096 255.634365 
L 284.918369 254.056657 
L 286.902016 252.587698 
L 288.397098 251.716113 
L 290.019307 250.96917 
L 291.788196 250.410851 
L 293.686035 249.982963 
L 295.667345 249.715202 
L 297.693614 249.64533 
L 299.728803 249.801024 
L 301.739317 250.199915 
L 303.693976 250.849639 
L 305.563967 251.747869 
L 307.32281 252.882336 
L 308.946316 254.230835 
L 310.412548 255.761216 
L 311.701792 257.431356 
L 312.800528 259.157127 
L 313.703527 260.930957 
L 314.408066 262.742144 
L 314.915283 264.560261 
L 315.229343 266.356857 
L 315.357456 268.105454 
L 315.309905 269.781553 
L 315.100056 271.362641 
L 314.744382 272.828205 
L 314.262472 274.159738 
L 313.353457 275.870235 
L 312.65798 276.797394 
L 311.491464 277.897413 
L 310.246721 278.699208 
L 308.980773 279.223365 
L 307.73669 279.499632 
L 306.543516 279.566939 
L 305.055632 279.416075 
L 303.016736 278.94359 
L 301.253876 278.278339 
L 299.805246 277.505002 
L 298.492571 276.566065 
L 297.421224 275.512476 
L 296.828757 274.645103 
L 296.458537 273.712334 
L 296.317398 272.722325 
L 296.400228 271.882479 
L 296.751711 270.76835 
L 297.75853 267.907729 
L 297.848015 266.918044 
L 297.682422 266.147603 
L 297.256357 265.413494 
L 296.754646 264.953938 
L 296.044272 264.566911 
L 294.878465 264.221051 
L 293.34389 264.032333 
L 291.431047 264.031658 
L 289.150487 264.251437 
L 286.915758 264.679564 
L 283.537483 265.55962 
L 280.048487 266.727009 
L 276.646599 268.118112 
L 273.570612 269.619424 
L 271.098399 271.068387 
L 269.491442 272.274752 
L 268.816167 272.993843 
L 268.574306 273.496828 
L 268.598432 273.93853 
L 268.878921 274.316889 
L 269.396467 274.625316 
L 270.331747 274.895133 
L 271.51378 275.006277 
L 273.5109 274.894044 
L 289.74101 273.470835 
L 292.097331 272.982812 
L 294.060104 272.36482 
L 295.903344 271.549071 
L 297.475634 270.628 
L 298.946838 269.521443 
L 300.122491 268.385077 
L 300.989666 267.285541 
L 301.631219 266.111719 
L 301.930582 265.075643 
L 301.94929 264.217883 
L 301.780114 263.554375 
L 301.420257 262.92879 
L 300.844579 262.35998 
L 300.028947 261.868825 
L 298.951741 261.477642 
L 297.595667 261.209255 
L 295.94978 261.085758 
L 293.482119 261.165017 
L 290.57763 261.53087 
L 287.286557 262.197422 
L 283.693225 263.158285 
L 279.915137 264.382867 
L 275.342929 266.120706 
L 270.993838 268.021582 
L 267.145409 269.924715 
L 264.033538 271.67177 
L 261.819213 273.135757 
L 260.71141 274.083742 
L 260.303485 274.653563 
L 260.262326 274.974306 
L 260.432101 275.2102 
L 260.955364 275.407409 
L 262.018004 275.499537 
L 264.42361 275.410128 
L 273.859819 274.872656 
L 277.909218 274.910718 
L 282.385674 275.18405 
L 286.809026 275.429186 
L 288.468289 275.294227 
L 289.938334 274.944246 
L 291.525155 274.316963 
L 293.441641 273.309015 
L 295.751575 271.833052 
L 297.765832 270.304738 
L 299.553056 268.680343 
L 300.936517 267.125221 
L 301.845605 265.815006 
L 302.440062 264.64623 
L 302.806309 263.435174 
L 302.874341 262.463447 
L 302.685764 261.520844 
L 302.34231 260.855362 
L 301.799122 260.246036 
L 301.033145 259.713787 
L 300.023448 259.281189 
L 298.752713 258.971678 
L 297.208922 258.808472 
L 295.387145 258.81318 
L 293.291285 259.004114 
L 290.935616 259.394428 
L 287.436773 260.234483 
L 283.616947 261.429554 
L 279.604773 262.939323 
L 275.555914 264.692727 
L 270.701927 267.078399 
L 266.377712 269.474417 
L 262.849325 271.667205 
L 260.288402 273.489031 
L 258.755783 274.845347 
L 258.244418 275.582809 
L 258.241151 275.947076 
L 258.5272 276.168874 
L 259.064857 276.270205 
L 260.412593 276.236485 
L 263.761386 275.836227 
L 268.842168 275.276351 
L 272.422995 275.094274 
L 275.82665 275.139955 
L 278.991325 275.397882 
L 282.494427 275.921713 
L 284.166664 276.135614 
L 284.121848 276.093892 
L 283.576802 275.951398 
L 282.365852 275.862114 
L 280.629477 275.972078 
L 278.587696 276.326913 
L 276.293725 276.947799 
L 273.941991 277.803696 
L 271.542832 278.916872 
L 269.536135 280.079382 
L 267.894082 281.27496 
L 266.759673 282.381142 
L 266.252367 283.145005 
L 266.10662 283.695633 
L 266.18794 284.047552 
L 266.462072 284.325148 
L 266.955687 284.506089 
L 267.694374 284.566226 
L 269.099685 284.415015 
L 271.022596 283.945882 
L 273.482235 283.107727 
L 276.466616 281.865188 
L 279.925153 280.207853 
L 283.764239 278.158752 
L 288.88741 275.144879 
L 294.049664 271.82547 
L 298.868197 268.48038 
L 303.686357 264.862553 
L 307.010984 262.103572 
L 308.476652 260.655086 
L 308.803498 260.073665 
L 308.704921 259.963077 
L 308.261149 259.998221 
L 307.188416 260.362286 
L 303.834362 261.811749 
L 297.939936 264.296637 
L 293.565597 265.877364 
L 289.512024 267.094063 
L 285.496454 268.061338 
L 280.700296 268.965137 
L 273.586531 270.272857 
L 269.551167 271.281253 
L 263.768044 272.979667 
L 253.630826 276.204973 
L 243.556635 279.639159 
L 234.848067 282.829679 
L 226.481572 286.117379 
L 218.008568 289.692311 
L 209.826769 293.399966 
L 202.343986 297.030283 
L 194.271173 301.228357 
L 187.420337 305.044581 
L 180.271796 309.306007 
L 174.759641 312.812585 
L 169.167017 316.595976 
L 163.552073 320.661045 
L 157.988658 325.006385 
L 152.568793 329.622141 
L 149.090002 332.839782 
L 145.763538 336.159117 
L 142.633116 339.567435 
L 139.747433 343.048361 
L 137.160277 346.581384 
L 134.930552 350.141402 
L 133.122154 353.698277 
L 132.397221 355.464645 
L 131.803693 357.216451 
L 131.350802 358.948352 
L 131.048002 360.654632 
L 130.904938 362.3292 
L 130.931414 363.965592 
L 131.137359 365.55697 
L 131.532778 367.09613 
L 132.12771 368.575517 
L 132.932176 369.987231 
L 133.95612 371.323056 
L 135.209348 372.574473 
L 136.701467 373.732698 
L 138.441809 374.788708 
L 140.439358 375.733284 
L 142.702675 376.557059 
L 145.23981 377.250564 
L 148.058224 377.804288 
L 151.164698 378.208741 
L 154.565247 378.454523 
L 158.265034 378.532396 
L 162.268278 378.433362 
L 166.578172 378.148751 
L 171.196796 377.670302 
L 176.12504 376.990261 
L 181.362525 376.101467 
L 186.907537 374.997456 
L 192.756963 373.672546 
L 198.906236 372.12194 
L 205.349295 370.341813 
L 212.078546 368.329401 
L 219.084842 366.083087 
L 226.357474 363.602475 
L 233.884171 360.888463 
L 241.651116 357.943302 
L 249.642975 354.770649 
L 257.84294 351.375601 
L 266.232785 347.764726 
L 274.792935 343.946072 
L 283.502549 339.929166 
L 292.339615 335.725 
L 310.302859 326.805964 
L 328.487503 317.304569 
L 346.687554 307.356135 
L 364.690904 297.112405 
L 382.284348 286.737375 
L 399.258747 276.40242 
L 415.414138 266.280857 
L 430.56463 256.542235 
L 444.542876 247.3466 
L 463.002338 234.883278 
L 478.126425 224.364801 
L 489.683081 216.064038 
L 497.591991 210.109651 
L 500.865228 207.441078 
L 502.597055 205.772304 
L 502.907921 205.294412 
L 502.863595 205.041801 
L 502.476613 205.003823 
L 501.760481 205.168917 
L 499.398884 206.058391 
L 493.767012 208.590539 
L 479.9044 215.085427 
L 479.9044 215.085427 
" style="fill:none;stroke:#ff0000;stroke-linecap:square;stroke-width:2;"/>
   </g>
   <g id="Path3DCollection_1">
    <defs>
     <path d="M 0 3.872983 
C 1.027127 3.872983 2.012324 3.464901 2.738613 2.738613 
C 3.464901 2.012324 3.872983 1.027127 3.872983 -0 
C 3.872983 -1.027127 3.464901 -2.012324 2.738613 -2.738613 
C 2.012324 -3.464901 1.027127 -3.872983 0 -3.872983 
C -1.027127 -3.872983 -2.012324 -3.464901 -2.738613 -2.738613 
C -3.464901 -2.012324 -3.872983 -1.027127 -3.872983 0 
C -3.872983 1.027127 -3.464901 2.012324 -2.738613 2.738613 
C -2.012324 3.464901 -1.027127 3.872983 0 3.872983 
z
" id="C0_0_5b59196355"/>
    </defs>
    <g clip-path="url(#p97f340b8c8)">
     <use style="fill:#1f77b4;fill-opacity:0.3;stroke:#000000;stroke-opacity:0.3;stroke-width:2;" x="288.335079" xlink:href="#C0_0_5b59196355" y="268.494663"/>
    </g>
    <g clip-path="url(#p97f340b8c8)">
     <use style="fill:#1f77b4;stroke:#000000;stroke-width:2;" x="479.9044" xlink:href="#C0_0_5b59196355" y="215.085427"/>
    </g>
   </g>
   <g id="text_24">
    <!-- residuals -->
    <g transform="translate(283.654688 24.477187)scale(0.18 -0.18)">
     <defs>
      <path d="M 41.109375 46.296875 
Q 39.59375 47.171875 37.8125 47.578125 
Q 36.03125 48 33.890625 48 
Q 26.265625 48 22.1875 43.046875 
Q 18.109375 38.09375 18.109375 28.8125 
L 18.109375 0 
L 9.078125 0 
L 9.078125 54.6875 
L 18.109375 54.6875 
L 18.109375 46.1875 
Q 20.953125 51.171875 25.484375 53.578125 
Q 30.03125 56 36.53125 56 
Q 37.453125 56 38.578125 55.875 
Q 39.703125 55.765625 41.0625 55.515625 
z
" id="DejaVuSans-114"/>
      <path d="M 56.203125 29.59375 
L 56.203125 25.203125 
L 14.890625 25.203125 
Q 15.484375 15.921875 20.484375 11.0625 
Q 25.484375 6.203125 34.421875 6.203125 
Q 39.59375 6.203125 44.453125 7.46875 
Q 49.3125 8.734375 54.109375 11.28125 
L 54.109375 2.78125 
Q 49.265625 0.734375 44.1875 -0.34375 
Q 39.109375 -1.421875 33.890625 -1.421875 
Q 20.796875 -1.421875 13.15625 6.1875 
Q 5.515625 13.8125 5.515625 26.8125 
Q 5.515625 40.234375 12.765625 48.109375 
Q 20.015625 56 32.328125 56 
Q 43.359375 56 49.78125 48.890625 
Q 56.203125 41.796875 56.203125 29.59375 
z
M 47.21875 32.234375 
Q 47.125 39.59375 43.09375 43.984375 
Q 39.0625 48.390625 32.421875 48.390625 
Q 24.90625 48.390625 20.390625 44.140625 
Q 15.875 39.890625 15.1875 32.171875 
z
" id="DejaVuSans-101"/>
      <path d="M 44.28125 53.078125 
L 44.28125 44.578125 
Q 40.484375 46.53125 36.375 47.5 
Q 32.28125 48.484375 27.875 48.484375 
Q 21.1875 48.484375 17.84375 46.4375 
Q 14.5 44.390625 14.5 40.28125 
Q 14.5 37.15625 16.890625 35.375 
Q 19.28125 33.59375 26.515625 31.984375 
L 29.59375 31.296875 
Q 39.15625 29.25 43.1875 25.515625 
Q 47.21875 21.78125 47.21875 15.09375 
Q 47.21875 7.46875 41.1875 3.015625 
Q 35.15625 -1.421875 24.609375 -1.421875 
Q 20.21875 -1.421875 15.453125 -0.5625 
Q 10.6875 0.296875 5.421875 2 
L 5.421875 11.28125 
Q 10.40625 8.6875 15.234375 7.390625 
Q 20.0625 6.109375 24.8125 6.109375 
Q 31.15625 6.109375 34.5625 8.28125 
Q 37.984375 10.453125 37.984375 14.40625 
Q 37.984375 18.0625 35.515625 20.015625 
Q 33.0625 21.96875 24.703125 23.78125 
L 21.578125 24.515625 
Q 13.234375 26.265625 9.515625 29.90625 
Q 5.8125 33.546875 5.8125 39.890625 
Q 5.8125 47.609375 11.28125 51.796875 
Q 16.75 56 26.8125 56 
Q 31.78125 56 36.171875 55.265625 
Q 40.578125 54.546875 44.28125 53.078125 
z
" id="DejaVuSans-115"/>
      <path d="M 9.421875 54.6875 
L 18.40625 54.6875 
L 18.40625 0 
L 9.421875 0 
z
M 9.421875 75.984375 
L 18.40625 75.984375 
L 18.40625 64.59375 
L 9.421875 64.59375 
z
" id="DejaVuSans-105"/>
      <path d="M 45.40625 46.390625 
L 45.40625 75.984375 
L 54.390625 75.984375 
L 54.390625 0 
L 45.40625 0 
L 45.40625 8.203125 
Q 42.578125 3.328125 38.25 0.953125 
Q 33.9375 -1.421875 27.875 -1.421875 
Q 17.96875 -1.421875 11.734375 6.484375 
Q 5.515625 14.40625 5.515625 27.296875 
Q 5.515625 40.1875 11.734375 48.09375 
Q 17.96875 56 27.875 56 
Q 33.9375 56 38.25 53.625 
Q 42.578125 51.265625 45.40625 46.390625 
z
M 14.796875 27.296875 
Q 14.796875 17.390625 18.875 11.75 
Q 22.953125 6.109375 30.078125 6.109375 
Q 37.203125 6.109375 41.296875 11.75 
Q 45.40625 17.390625 45.40625 27.296875 
Q 45.40625 37.203125 41.296875 42.84375 
Q 37.203125 48.484375 30.078125 48.484375 
Q 22.953125 48.484375 18.875 42.84375 
Q 14.796875 37.203125 14.796875 27.296875 
z
" id="DejaVuSans-100"/>
      <path d="M 8.5 21.578125 
L 8.5 54.6875 
L 17.484375 54.6875 
L 17.484375 21.921875 
Q 17.484375 14.15625 20.5 10.265625 
Q 23.53125 6.390625 29.59375 6.390625 
Q 36.859375 6.390625 41.078125 11.03125 
Q 45.3125 15.671875 45.3125 23.6875 
L 45.3125 54.6875 
L 54.296875 54.6875 
L 54.296875 0 
L 45.3125 0 
L 45.3125 8.40625 
Q 42.046875 3.421875 37.71875 1 
Q 33.40625 -1.421875 27.6875 -1.421875 
Q 18.265625 -1.421875 13.375 4.4375 
Q 8.5 10.296875 8.5 21.578125 
z
M 31.109375 56 
z
" id="DejaVuSans-117"/>
      <path d="M 34.28125 27.484375 
Q 23.390625 27.484375 19.1875 25 
Q 14.984375 22.515625 14.984375 16.5 
Q 14.984375 11.71875 18.140625 8.90625 
Q 21.296875 6.109375 26.703125 6.109375 
Q 34.1875 6.109375 38.703125 11.40625 
Q 43.21875 16.703125 43.21875 25.484375 
L 43.21875 27.484375 
z
M 52.203125 31.203125 
L 52.203125 0 
L 43.21875 0 
L 43.21875 8.296875 
Q 40.140625 3.328125 35.546875 0.953125 
Q 30.953125 -1.421875 24.3125 -1.421875 
Q 15.921875 -1.421875 10.953125 3.296875 
Q 6 8.015625 6 15.921875 
Q 6 25.140625 12.171875 29.828125 
Q 18.359375 34.515625 30.609375 34.515625 
L 43.21875 34.515625 
L 43.21875 35.40625 
Q 43.21875 41.609375 39.140625 45 
Q 35.0625 48.390625 27.6875 48.390625 
Q 23 48.390625 18.546875 47.265625 
Q 14.109375 46.140625 10.015625 43.890625 
L 10.015625 52.203125 
Q 14.9375 54.109375 19.578125 55.046875 
Q 24.21875 56 28.609375 56 
Q 40.484375 56 46.34375 49.84375 
Q 52.203125 43.703125 52.203125 31.203125 
z
" id="DejaVuSans-97"/>
      <path d="M 9.421875 75.984375 
L 18.40625 75.984375 
L 18.40625 0 
L 9.421875 0 
z
" id="DejaVuSans-108"/>
     </defs>
     <use xlink:href="#DejaVuSans-114"/>
     <use x="38.863281" xlink:href="#DejaVuSans-101"/>
     <use x="100.386719" xlink:href="#DejaVuSans-115"/>
     <use x="152.486328" xlink:href="#DejaVuSans-105"/>
     <use x="180.269531" xlink:href="#DejaVuSans-100"/>
     <use x="243.746094" xlink:href="#DejaVuSans-117"/>
     <use x="307.125" xlink:href="#DejaVuSans-97"/>
     <use x="368.404297" xlink:href="#DejaVuSans-108"/>
     <use x="396.1875" xlink:href="#DejaVuSans-115"/>
    </g>
   </g>
  </g>
 </g>
 <defs>
  <clipPath id="p97f340b8c8">
   <rect height="534.722813" width="534.722813" x="56.638594" y="30.477187"/>
  </clipPath>
 </defs>
</svg>
